<?xml version="1.0" standalone="no"?><svg xmlns="http://www.w3.org/2000/svg" viewBox="0 0 1440 320"><path fill="#0099ff" fill-opacity="0.3" d="M0,160L9.6,138.7C19.2,117,38,75,58,53.3C76.8,32,96,32,115,42.7C134.4,53,154,75,173,117.3C192,160,211,224,230,245.3C249.6,267,269,245,288,202.7C307.2,160,326,96,346,85.3C364.8,75,384,117,403,133.3C422.4,149,442,139,461,144C480,149,499,171,518,202.7C537.6,235,557,277,576,272C595.2,267,614,213,634,197.3C652.8,181,672,203,691,192C710.4,181,730,139,749,117.3C768,96,787,96,806,128C825.6,160,845,224,864,234.7C883.2,245,902,203,922,170.7C940.8,139,960,117,979,122.7C998.4,128,1018,160,1037,176C1056,192,1075,192,1094,208C1113.6,224,1133,256,1152,277.3C1171.2,299,1190,309,1210,272C1228.8,235,1248,149,1267,128C1286.4,107,1306,149,1325,160C1344,171,1363,149,1382,122.7C1401.6,96,1421,64,1430,48L1440,32L1440,0L1430.4,0C1420.8,0,1402,0,1382,0C1363.2,0,1344,0,1325,0C1305.6,0,1286,0,1267,0C1248,0,1229,0,1210,0C1190.4,0,1171,0,1152,0C1132.8,0,1114,0,1094,0C1075.2,0,1056,0,1037,0C1017.6,0,998,0,979,0C960,0,941,0,922,0C902.4,0,883,0,864,0C844.8,0,826,0,806,0C787.2,0,768,0,749,0C729.6,0,710,0,691,0C672,0,653,0,634,0C614.4,0,595,0,576,0C556.8,0,538,0,518,0C499.2,0,480,0,461,0C441.6,0,422,0,403,0C384,0,365,0,346,0C326.4,0,307,0,288,0C268.8,0,250,0,230,0C211.2,0,192,0,173,0C153.6,0,134,0,115,0C96,0,77,0,58,0C38.4,0,19,0,10,0L0,0Z"></path></svg>